{
  "version": "1.1.6",
  "modules": [
    {
      "id": 14,
      "plugin": "ImpromptuModular",
      "version": "1.1.10",
      "model": "Clocked",
      "params": [
        {
          "id": 0,
          "value": 120.0
        },
        {
          "id": 1,
          "value": 33.0
        },
        {
          "id": 2,
          "value": 21.0
        },
        {
          "id": 3,
          "value": 5.0
        },
        {
          "id": 4,
          "value": 0.0
        },
        {
          "id": 5,
          "value": 0.0
        },
        {
          "id": 6,
          "value": 0.0
        },
        {
          "id": 7,
          "value": 0.0
        },
        {
          "id": 8,
          "value": 0.5
        },
        {
          "id": 9,
          "value": 0.5
        },
        {
          "id": 10,
          "value": 0.5
        },
        {
          "id": 11,
          "value": 0.5
        },
        {
          "id": 12,
          "value": 0.0
        },
        {
          "id": 13,
          "value": 0.0
        },
        {
          "id": 14,
          "value": 0.0
        },
        {
          "id": 15,
          "value": 0.0
        },
        {
          "id": 16,
          "value": 0.0
        },
        {
          "id": 17,
          "value": 0.0
        },
        {
          "id": 18,
          "value": 0.0
        },
        {
          "id": 19,
          "value": 0.0
        }
      ],
      "rightModuleId": 543,
      "data": {
        "panelTheme": 0,
        "running": true,
        "displayDelayNoteMode": true,
        "bpmDetectionMode": false,
        "resetOnStartStop": 0,
        "ppqn": 4,
        "resetClockOutputsHigh": true,
        "momentaryRunInput": true,
        "clockMaster": false
      },
      "pos": [
        52,
        4
      ]
    },
    {
      "id": 15,
      "plugin": "squinkylabs-plug1",
      "version": "1.0.19",
      "model": "squinkylabs-sequencer",
      "params": [
        {
          "id": 0,
          "value": 0.0
        },
        {
          "id": 1,
          "value": 120.0
        },
        {
          "id": 2,
          "value": 0.0
        },
        {
          "id": 3,
          "value": 1.0
        },
        {
          "id": 4,
          "value": 1.0
        },
        {
          "id": 5,
          "value": 0.0
        },
        {
          "id": 6,
          "value": 1.0
        },
        {
          "id": 7,
          "value": 1.0
        },
        {
          "id": 8,
          "value": 1.0
        }
      ],
      "rightModuleId": 320,
      "data": {
        "song": {
          "tk0": [
            {
              "t": 1,
              "s": 0.0,
              "p": 1.41666663,
              "d": 0.924038887
            },
            {
              "t": 1,
              "s": 0.3125,
              "p": 1.58333337,
              "d": 0.212500006
            },
            {
              "t": 1,
              "s": 0.5,
              "p": 1.75,
              "d": 0.481730938
            },
            {
              "t": 1,
              "s": 1.0,
              "p": 1.66666675,
              "d": 1.02019262
            },
            {
              "t": 1,
              "s": 1.75,
              "p": 1.58333337,
              "d": 2.0875001
            },
            {
              "t": 1,
              "s": 3.5,
              "p": 1.66666675,
              "d": 0.212500006
            },
            {
              "t": 1,
              "s": 4.0,
              "p": 1.5,
              "d": 3.4000001
            },
            {
              "t": 1,
              "s": 7.0,
              "p": 1.25,
              "d": 0.712499976
            },
            {
              "t": 1,
              "s": 8.0,
              "p": 1.24999988,
              "d": 0.751000047
            },
            {
              "t": 1,
              "s": 8.3125,
              "p": 1.5,
              "d": 0.751000047
            },
            {
              "t": 1,
              "s": 8.5,
              "p": 1.58333325,
              "d": 1.25100005
            },
            {
              "t": 1,
              "s": 9.25,
              "p": 1.75,
              "d": 0.962499976
            },
            {
              "t": 1,
              "s": 9.75,
              "p": 1.91666687,
              "d": 1.8375001
            },
            {
              "t": 1,
              "s": 11.5,
              "p": 1.91666687,
              "d": 0.751000047
            },
            {
              "t": 1,
              "s": 12.0,
              "p": 1.33333325,
              "d": 3.1500001
            },
            {
              "t": 1,
              "s": 15.0,
              "p": 1.08333325,
              "d": 0.751000047
            },
            {
              "t": 1,
              "s": 15.5,
              "p": 1.66666675,
              "d": 0.462500006
            },
            {
              "t": 2,
              "s": 16.0
            }
          ],
          "loop": {
            "enabled": false,
            "startTime": 0,
            "endTime": 8
          }
        },
        "settings": {
          "snapToGrid": true,
          "snapDurationToGrid": false,
          "grid": "sixteenth",
          "articulation": "85%",
          "midiFilePath": "",
          "keysigRoot": 0,
          "keysigMode": 5
        }
      },
      "pos": [
        16,
        2
      ]
    },
    {
      "id": 40,
      "plugin": "ImpromptuModular",
      "version": "1.1.10",
      "model": "Clocked",
      "params": [
        {
          "id": 0,
          "value": 120.0
        },
        {
          "id": 1,
          "value": -5.0
        },
        {
          "id": 2,
          "value": -17.0
        },
        {
          "id": 3,
          "value": -33.0
        },
        {
          "id": 4,
          "value": 0.0
        },
        {
          "id": 5,
          "value": 0.0
        },
        {
          "id": 6,
          "value": 0.0
        },
        {
          "id": 7,
          "value": 0.0
        },
        {
          "id": 8,
          "value": 0.5
        },
        {
          "id": 9,
          "value": 0.5
        },
        {
          "id": 10,
          "value": 0.5
        },
        {
          "id": 11,
          "value": 0.5
        },
        {
          "id": 12,
          "value": 0.0
        },
        {
          "id": 13,
          "value": 0.0
        },
        {
          "id": 14,
          "value": 0.0
        },
        {
          "id": 15,
          "value": 0.0
        },
        {
          "id": 16,
          "value": 0.0
        },
        {
          "id": 17,
          "value": 0.0
        },
        {
          "id": 18,
          "value": 0.0
        },
        {
          "id": 19,
          "value": 0.0
        }
      ],
      "leftModuleId": 493,
      "data": {
        "panelTheme": 0,
        "running": true,
        "displayDelayNoteMode": true,
        "bpmDetectionMode": false,
        "resetOnStartStop": 1,
        "ppqn": 4,
        "resetClockOutputsHigh": true,
        "momentaryRunInput": true,
        "clockMaster": false
      },
      "pos": [
        52,
        5
      ]
    },
    {
      "id": 113,
      "plugin": "TriggerFish-Elements",
      "version": "1.0.1",
      "model": "TfSlop4",
      "params": [
        {
          "id": 0,
          "value": 1.0
        },
        {
          "id": 1,
          "value": 1.0
        },
        {
          "id": 2,
          "value": 1.0
        },
        {
          "id": 3,
          "value": 1.0
        },
        {
          "id": 4,
          "value": 0.0
        },
        {
          "id": 5,
          "value": 0.0
        },
        {
          "id": 6,
          "value": 0.00103124999
        }
      ],
      "leftModuleId": 495,
      "rightModuleId": 544,
      "pos": [
        81,
        2
      ]
    },
    {
      "id": 142,
      "plugin": "Stoermelder-PackTau",
      "version": "1.0.f37530d",
      "model": "Mb",
      "params": [],
      "leftModuleId": 18,
      "rightModuleId": 506,
      "data": {
        "mode": 1
      },
      "pos": [
        82,
        4
      ]
    },
    {
      "id": 147,
      "plugin": "Hora-Mixers",
      "version": "1.0.2",
      "model": "StereoMixer-8-2",
      "params": [
        {
          "id": 0,
          "value": 1.0
        },
        {
          "id": 1,
          "value": 1.0
        },
        {
          "id": 2,
          "value": 1.0
        },
        {
          "id": 3,
          "value": 1.0
        },
        {
          "id": 4,
          "value": 1.0
        },
        {
          "id": 5,
          "value": 0.0
        },
        {
          "id": 6,
          "value": 0.0
        },
        {
          "id": 7,
          "value": 0.0
        },
        {
          "id": 8,
          "value": 0.0
        },
        {
          "id": 9,
          "value": 0.0
        },
        {
          "id": 10,
          "value": 0.0
        },
        {
          "id": 11,
          "value": 0.0
        },
        {
          "id": 12,
          "value": 0.0
        },
        {
          "id": 13,
          "value": 0.0
        },
        {
          "id": 14,
          "value": 0.0
        },
        {
          "id": 15,
          "value": 0.0
        },
        {
          "id": 16,
          "value": 0.0
        },
        {
          "id": 17,
          "value": 0.0
        },
        {
          "id": 18,
          "value": 0.0
        },
        {
          "id": 19,
          "value": 0.0
        },
        {
          "id": 20,
          "value": 0.0
        },
        {
          "id": 21,
          "value": 0.524999976
        },
        {
          "id": 22,
          "value": 0.513000071
        },
        {
          "id": 23,
          "value": 0.389999986
        },
        {
          "id": 24,
          "value": 0.507000029
        },
        {
          "id": 25,
          "value": 0.522000074
        },
        {
          "id": 26,
          "value": 0.522999942
        },
        {
          "id": 27,
          "value": 0.526000082
        },
        {
          "id": 28,
          "value": 0.318999946
        },
        {
          "id": 29,
          "value": 1.0
        },
        {
          "id": 30,
          "value": 1.0
        },
        {
          "id": 31,
          "value": 1.0
        },
        {
          "id": 32,
          "value": 1.0
        },
        {
          "id": 33,
          "value": 1.0
        },
        {
          "id": 34,
          "value": 1.0
        },
        {
          "id": 35,
          "value": 1.0
        },
        {
          "id": 36,
          "value": 1.0
        },
        {
          "id": 37,
          "value": 0.0
        },
        {
          "id": 38,
          "value": 0.0
        },
        {
          "id": 39,
          "value": 0.0
        },
        {
          "id": 40,
          "value": 0.0
        },
        {
          "id": 41,
          "value": 0.0
        },
        {
          "id": 42,
          "value": 0.0
        },
        {
          "id": 43,
          "value": 0.0
        },
        {
          "id": 44,
          "value": 0.0
        },
        {
          "id": 45,
          "value": 1.0
        },
        {
          "id": 46,
          "value": 1.0
        },
        {
          "id": 47,
          "value": 1.0
        },
        {
          "id": 48,
          "value": 1.0
        },
        {
          "id": 49,
          "value": 1.0
        },
        {
          "id": 50,
          "value": 1.0
        },
        {
          "id": 51,
          "value": 1.0
        },
        {
          "id": 52,
          "value": 1.0
        },
        {
          "id": 53,
          "value": 1.0
        },
        {
          "id": 54,
          "value": 1.0
        },
        {
          "id": 55,
          "value": 1.0
        },
        {
          "id": 56,
          "value": 1.0
        },
        {
          "id": 57,
          "value": 1.0
        },
        {
          "id": 58,
          "value": 1.0
        },
        {
          "id": 59,
          "value": 1.0
        },
        {
          "id": 60,
          "value": 1.0
        }
      ],
      "rightModuleId": 510,
      "pos": [
        154,
        7
      ]
    },
    {
      "id": 18,
      "plugin": "Alikins",
      "version": "1.0.1",
      "model": "HoveredValue",
      "params": [
        {
          "id": 0,
          "value": 0.0
        },
        {
          "id": 1,
          "value": 2.0
        },
        {
          "id": 2,
          "value": 0.0
        },
        {
          "id": 3,
          "value": 0.0
        }
      ],
      "leftModuleId": 502,
      "rightModuleId": 142,
      "data": {
        "useTooltip": true
      },
      "pos": [
        76,
        4
      ]
    },
    {
      "id": 320,
      "plugin": "Stoermelder-P1",
      "version": "1.9.0",
      "model": "Strip",
      "params": [
        {
          "id": 0,
          "value": 0.0
        },
        {
          "id": 1,
          "value": 0.0
        },
        {
          "id": 2,
          "value": 0.0
        },
        {
          "id": 3,
          "value": 0.0
        },
        {
          "id": 4,
          "value": 0.0
        }
      ],
      "leftModuleId": 15,
      "rightModuleId": 515,
      "data": {
        "mode": 0,
        "panelTheme": 0,
        "onMode": 0,
        "excludedParams": [],
        "randomExcl": 1,
        "randomParamsOnly": false,
        "presetLoadReplace": false
      },
      "pos": [
        52,
        2
      ]
    },
    {
      "id": 474,
      "plugin": "MindMeldModular",
      "version": "1.1.14",
      "model": "Unmeld",
      "params": [],
      "leftModuleId": 510,
      "rightModuleId": 513,
      "data": {
        "facePlate": 0
      },
      "pos": [
        267,
        7
      ]
    },
    {
      "id": 495,
      "plugin": "NYSTHI",
      "version": "1.0.17",
      "model": "ScalaQuantizer",
      "params": [
        {
          "id": 0,
          "value": 0.0
        },
        {
          "id": 1,
          "value": 0.0
        },
        {
          "id": 2,
          "value": 1.0
        },
        {
          "id": 3,
          "value": 0.0
        }
      ],
      "rightModuleId": 113,
      "data": {
        "m_current_octave": 0,
        "m_current_tuning": 0.0,
        "m_base_freq": 261.62558,
        "m_current_scale": "xylophone2.scl - African Yaswa xylophones (idiophone; calbash resonators with membrane)",
        "m_bypass": false,
        "m_midi_mode_offset_value": 0.0
      },
      "pos": [
        71,
        2
      ]
    },
    {
      "id": 502,
      "plugin": "ModularFungi",
      "version": "1.1.4",
      "model": "LightsOff",
      "params": [
        {
          "id": 0,
          "value": 0.692999959
        }
      ],
      "leftModuleId": 543,
      "rightModuleId": 18,
      "pos": [
        75,
        4
      ]
    },
    {
      "id": 506,
      "plugin": "FrozenWasteland",
      "version": "1.20.1",
      "model": "BPMLFO",
      "params": [
        {
          "id": 0,
          "value": 4.0
        },
        {
          "id": 1,
          "value": 0.0
        },
        {
          "id": 2,
          "value": 1.0
        },
        {
          "id": 3,
          "value": 0.0
        },
        {
          "id": 4,
          "value": 0.0
        },
        {
          "id": 5,
          "value": 0.0
        },
        {
          "id": 6,
          "value": 0.0
        },
        {
          "id": 7,
          "value": 1.0
        },
        {
          "id": 8,
          "value": 1.0
        },
        {
          "id": 9,
          "value": 1.0
        }
      ],
      "leftModuleId": 142,
      "pos": [
        84,
        4
      ]
    },
    {
      "id": 510,
      "plugin": "MindMeldModular",
      "version": "1.1.14",
      "model": "MixMaster",
      "params": [
        {
          "id": 0,
          "value": 1.0
        },
        {
          "id": 1,
          "value": 1.0
        },
        {
          "id": 2,
          "value": 0.748393297
        },
        {
          "id": 3,
          "value": 1.0
        },
        {
          "id": 4,
          "value": 1.0
        },
        {
          "id": 5,
          "value": 1.0
        },
        {
          "id": 6,
          "value": 1.0
        },
        {
          "id": 7,
          "value": 1.0
        },
        {
          "id": 8,
          "value": 1.0
        },
        {
          "id": 9,
          "value": 1.0
        },
        {
          "id": 10,
          "value": 1.0
        },
        {
          "id": 11,
          "value": 1.0
        },
        {
          "id": 12,
          "value": 1.0
        },
        {
          "id": 13,
          "value": 1.0
        },
        {
          "id": 14,
          "value": 1.0
        },
        {
          "id": 15,
          "value": 1.0
        },
        {
          "id": 16,
          "value": 1.0
        },
        {
          "id": 17,
          "value": 1.0
        },
        {
          "id": 18,
          "value": 1.0
        },
        {
          "id": 19,
          "value": 1.0
        },
        {
          "id": 20,
          "value": 0.5
        },
        {
          "id": 21,
          "value": 0.5
        },
        {
          "id": 22,
          "value": 0.5
        },
        {
          "id": 23,
          "value": 0.5
        },
        {
          "id": 24,
          "value": 0.5
        },
        {
          "id": 25,
          "value": 0.5
        },
        {
          "id": 26,
          "value": 0.5
        },
        {
          "id": 27,
          "value": 0.5
        },
        {
          "id": 28,
          "value": 0.5
        },
        {
          "id": 29,
          "value": 0.5
        },
        {
          "id": 30,
          "value": 0.5
        },
        {
          "id": 31,
          "value": 0.5
        },
        {
          "id": 32,
          "value": 0.5
        },
        {
          "id": 33,
          "value": 0.5
        },
        {
          "id": 34,
          "value": 0.5
        },
        {
          "id": 35,
          "value": 0.5
        },
        {
          "id": 36,
          "value": 0.5
        },
        {
          "id": 37,
          "value": 0.5
        },
        {
          "id": 38,
          "value": 0.5
        },
        {
          "id": 39,
          "value": 0.5
        },
        {
          "id": 40,
          "value": 0.0
        },
        {
          "id": 41,
          "value": 0.0
        },
        {
          "id": 42,
          "value": 0.0
        },
        {
          "id": 43,
          "value": 0.0
        },
        {
          "id": 44,
          "value": 0.0
        },
        {
          "id": 45,
          "value": 0.0
        },
        {
          "id": 46,
          "value": 0.0
        },
        {
          "id": 47,
          "value": 0.0
        },
        {
          "id": 48,
          "value": 0.0
        },
        {
          "id": 49,
          "value": 0.0
        },
        {
          "id": 50,
          "value": 0.0
        },
        {
          "id": 51,
          "value": 0.0
        },
        {
          "id": 52,
          "value": 0.0
        },
        {
          "id": 53,
          "value": 0.0
        },
        {
          "id": 54,
          "value": 0.0
        },
        {
          "id": 55,
          "value": 0.0
        },
        {
          "id": 56,
          "value": 0.0
        },
        {
          "id": 57,
          "value": 0.0
        },
        {
          "id": 58,
          "value": 0.0
        },
        {
          "id": 59,
          "value": 0.0
        },
        {
          "id": 60,
          "value": 0.0
        },
        {
          "id": 61,
          "value": 0.0
        },
        {
          "id": 62,
          "value": 0.0
        },
        {
          "id": 63,
          "value": 0.0
        },
        {
          "id": 64,
          "value": 0.0
        },
        {
          "id": 65,
          "value": 0.0
        },
        {
          "id": 66,
          "value": 0.0
        },
        {
          "id": 67,
          "value": 0.0
        },
        {
          "id": 68,
          "value": 0.0
        },
        {
          "id": 69,
          "value": 0.0
        },
        {
          "id": 70,
          "value": 0.0
        },
        {
          "id": 71,
          "value": 0.0
        },
        {
          "id": 72,
          "value": 0.0
        },
        {
          "id": 73,
          "value": 0.0
        },
        {
          "id": 74,
          "value": 0.0
        },
        {
          "id": 75,
          "value": 0.0
        },
        {
          "id": 76,
          "value": 0.0
        },
        {
          "id": 77,
          "value": 0.0
        },
        {
          "id": 78,
          "value": 0.0
        },
        {
          "id": 79,
          "value": 0.0
        },
        {
          "id": 80,
          "value": 0.0
        },
        {
          "id": 81,
          "value": 0.0
        },
        {
          "id": 82,
          "value": 0.0
        },
        {
          "id": 83,
          "value": 1.0
        },
        {
          "id": 84,
          "value": 0.0
        },
        {
          "id": 85,
          "value": 0.0
        },
        {
          "id": 86,
          "value": 0.0
        },
        {
          "id": 87,
          "value": 0.0
        },
        {
          "id": 88,
          "value": 0.0
        },
        {
          "id": 89,
          "value": 0.0
        },
        {
          "id": 90,
          "value": 0.0
        },
        {
          "id": 91,
          "value": 0.0
        },
        {
          "id": 92,
          "value": 0.0
        },
        {
          "id": 93,
          "value": 0.0
        },
        {
          "id": 94,
          "value": 0.0
        },
        {
          "id": 95,
          "value": 0.0
        },
        {
          "id": 96,
          "value": 0.0
        },
        {
          "id": 97,
          "value": 0.0
        },
        {
          "id": 98,
          "value": 0.0
        },
        {
          "id": 99,
          "value": 0.0
        },
        {
          "id": 100,
          "value": 13.0
        },
        {
          "id": 101,
          "value": 13.0
        },
        {
          "id": 102,
          "value": 13.0
        },
        {
          "id": 103,
          "value": 13.0
        },
        {
          "id": 104,
          "value": 13.0
        },
        {
          "id": 105,
          "value": 13.0
        },
        {
          "id": 106,
          "value": 13.0
        },
        {
          "id": 107,
          "value": 13.0
        },
        {
          "id": 108,
          "value": 13.0
        },
        {
          "id": 109,
          "value": 13.0
        },
        {
          "id": 110,
          "value": 13.0
        },
        {
          "id": 111,
          "value": 13.0
        },
        {
          "id": 112,
          "value": 13.0
        },
        {
          "id": 113,
          "value": 13.0
        },
        {
          "id": 114,
          "value": 13.0
        },
        {
          "id": 115,
          "value": 13.0
        },
        {
          "id": 116,
          "value": 20010.0
        },
        {
          "id": 117,
          "value": 20010.0
        },
        {
          "id": 118,
          "value": 20010.0
        },
        {
          "id": 119,
          "value": 20010.0
        },
        {
          "id": 120,
          "value": 20010.0
        },
        {
          "id": 121,
          "value": 20010.0
        },
        {
          "id": 122,
          "value": 20010.0
        },
        {
          "id": 123,
          "value": 20010.0
        },
        {
          "id": 124,
          "value": 20010.0
        },
        {
          "id": 125,
          "value": 20010.0
        },
        {
          "id": 126,
          "value": 20010.0
        },
        {
          "id": 127,
          "value": 20010.0
        },
        {
          "id": 128,
          "value": 20010.0
        },
        {
          "id": 129,
          "value": 20010.0
        },
        {
          "id": 130,
          "value": 20010.0
        },
        {
          "id": 131,
          "value": 20010.0
        },
        {
          "id": 132,
          "value": 13.0
        },
        {
          "id": 133,
          "value": 13.0
        },
        {
          "id": 134,
          "value": 13.0
        },
        {
          "id": 135,
          "value": 13.0
        },
        {
          "id": 136,
          "value": 20010.0
        },
        {
          "id": 137,
          "value": 20010.0
        },
        {
          "id": 138,
          "value": 20010.0
        },
        {
          "id": 139,
          "value": 20010.0
        }
      ],
      "leftModuleId": 147,
      "rightModuleId": 474,
      "data": {
        "trackLabels": "drumbasschrd-04--05--06--07--08--09--10--11--12--13--14--15--16-GRP1GRP2GRP3GRP4",
        "panLawMono": 1,
        "panLawStereo": 1,
        "directOutsMode": 3,
        "directOutsSkipGroupedTracks": 0,
        "auxSendsMode": 3,
        "groupsControlTrackSendLevels": 0,
        "auxReturnsMutedWhenMainSolo": 0,
        "auxReturnsSolosMuteDry": 0,
        "chainMode": 0,
        "colorAndCloak": 117440512,
        "symmetricalFade": false,
        "fadeCvOutsWithVolCv": false,
        "linkBitMask": 0,
        "filterPos": 1,
        "groupedAuxReturnFeedbackProtection": 1,
        "ecoMode": 65535,
        "faders": [
          1.0,
          1.0,
          0.748393297,
          1.0,
          1.0,
          1.0,
          1.0,
          1.0,
          1.0,
          1.0,
          1.0,
          1.0,
          1.0,
          1.0,
          1.0,
          1.0,
          1.0,
          1.0,
          1.0,
          1.0
        ],
        "momentaryCvButtons": 1,
        "masterFaderScalesSends": 0,
        "linearVolCvInputs": 0,
        "id_t0_gainAdjust": 1.0,
        "id_t0_fadeRate": 0.0,
        "id_t0_fadeProfile": 0.0,
        "id_t0_directOutsMode": 3,
        "id_t0_auxSendsMode": 3,
        "id_t0_panLawStereo": 1,
        "id_t0_vuColorThemeLocal": 0,
        "id_t0_filterPos": 1,
        "id_t0_dispColorLocal": 0,
        "id_t0_polyStereo": 0,
        "id_t0_panCvLevel": 1.0,
        "id_t0_stereoWidth": 1.0,
        "id_t0_invertInput": 0,
        "id_t1_gainAdjust": 1.0,
        "id_t1_fadeRate": 0.0,
        "id_t1_fadeProfile": 0.0,
        "id_t1_directOutsMode": 3,
        "id_t1_auxSendsMode": 3,
        "id_t1_panLawStereo": 1,
        "id_t1_vuColorThemeLocal": 0,
        "id_t1_filterPos": 1,
        "id_t1_dispColorLocal": 0,
        "id_t1_polyStereo": 0,
        "id_t1_panCvLevel": 1.0,
        "id_t1_stereoWidth": 1.0,
        "id_t1_invertInput": 0,
        "id_t2_gainAdjust": 1.0,
        "id_t2_fadeRate": 0.0,
        "id_t2_fadeProfile": 0.0,
        "id_t2_directOutsMode": 3,
        "id_t2_auxSendsMode": 3,
        "id_t2_panLawStereo": 1,
        "id_t2_vuColorThemeLocal": 0,
        "id_t2_filterPos": 1,
        "id_t2_dispColorLocal": 0,
        "id_t2_polyStereo": 0,
        "id_t2_panCvLevel": 1.0,
        "id_t2_stereoWidth": 1.0,
        "id_t2_invertInput": 0,
        "id_t3_gainAdjust": 1.0,
        "id_t3_fadeRate": 0.0,
        "id_t3_fadeProfile": 0.0,
        "id_t3_directOutsMode": 3,
        "id_t3_auxSendsMode": 3,
        "id_t3_panLawStereo": 1,
        "id_t3_vuColorThemeLocal": 0,
        "id_t3_filterPos": 1,
        "id_t3_dispColorLocal": 0,
        "id_t3_polyStereo": 0,
        "id_t3_panCvLevel": 1.0,
        "id_t3_stereoWidth": 1.0,
        "id_t3_invertInput": 0,
        "id_t4_gainAdjust": 1.0,
        "id_t4_fadeRate": 0.0,
        "id_t4_fadeProfile": 0.0,
        "id_t4_directOutsMode": 3,
        "id_t4_auxSendsMode": 3,
        "id_t4_panLawStereo": 1,
        "id_t4_vuColorThemeLocal": 0,
        "id_t4_filterPos": 1,
        "id_t4_dispColorLocal": 0,
        "id_t4_polyStereo": 0,
        "id_t4_panCvLevel": 1.0,
        "id_t4_stereoWidth": 1.0,
        "id_t4_invertInput": 0,
        "id_t5_gainAdjust": 1.0,
        "id_t5_fadeRate": 0.0,
        "id_t5_fadeProfile": 0.0,
        "id_t5_directOutsMode": 3,
        "id_t5_auxSendsMode": 3,
        "id_t5_panLawStereo": 1,
        "id_t5_vuColorThemeLocal": 0,
        "id_t5_filterPos": 1,
        "id_t5_dispColorLocal": 0,
        "id_t5_polyStereo": 0,
        "id_t5_panCvLevel": 1.0,
        "id_t5_stereoWidth": 1.0,
        "id_t5_invertInput": 0,
        "id_t6_gainAdjust": 1.0,
        "id_t6_fadeRate": 0.0,
        "id_t6_fadeProfile": 0.0,
        "id_t6_directOutsMode": 3,
        "id_t6_auxSendsMode": 3,
        "id_t6_panLawStereo": 1,
        "id_t6_vuColorThemeLocal": 0,
        "id_t6_filterPos": 1,
        "id_t6_dispColorLocal": 0,
        "id_t6_polyStereo": 0,
        "id_t6_panCvLevel": 1.0,
        "id_t6_stereoWidth": 1.0,
        "id_t6_invertInput": 0,
        "id_t7_gainAdjust": 1.0,
        "id_t7_fadeRate": 0.0,
        "id_t7_fadeProfile": 0.0,
        "id_t7_directOutsMode": 3,
        "id_t7_auxSendsMode": 3,
        "id_t7_panLawStereo": 1,
        "id_t7_vuColorThemeLocal": 0,
        "id_t7_filterPos": 1,
        "id_t7_dispColorLocal": 0,
        "id_t7_polyStereo": 0,
        "id_t7_panCvLevel": 1.0,
        "id_t7_stereoWidth": 1.0,
        "id_t7_invertInput": 0,
        "id_t8_gainAdjust": 1.0,
        "id_t8_fadeRate": 0.0,
        "id_t8_fadeProfile": 0.0,
        "id_t8_directOutsMode": 3,
        "id_t8_auxSendsMode": 3,
        "id_t8_panLawStereo": 1,
        "id_t8_vuColorThemeLocal": 0,
        "id_t8_filterPos": 1,
        "id_t8_dispColorLocal": 0,
        "id_t8_polyStereo": 0,
        "id_t8_panCvLevel": 1.0,
        "id_t8_stereoWidth": 1.0,
        "id_t8_invertInput": 0,
        "id_t9_gainAdjust": 1.0,
        "id_t9_fadeRate": 0.0,
        "id_t9_fadeProfile": 0.0,
        "id_t9_directOutsMode": 3,
        "id_t9_auxSendsMode": 3,
        "id_t9_panLawStereo": 1,
        "id_t9_vuColorThemeLocal": 0,
        "id_t9_filterPos": 1,
        "id_t9_dispColorLocal": 0,
        "id_t9_polyStereo": 0,
        "id_t9_panCvLevel": 1.0,
        "id_t9_stereoWidth": 1.0,
        "id_t9_invertInput": 0,
        "id_t10_gainAdjust": 1.0,
        "id_t10_fadeRate": 0.0,
        "id_t10_fadeProfile": 0.0,
        "id_t10_directOutsMode": 3,
        "id_t10_auxSendsMode": 3,
        "id_t10_panLawStereo": 1,
        "id_t10_vuColorThemeLocal": 0,
        "id_t10_filterPos": 1,
        "id_t10_dispColorLocal": 0,
        "id_t10_polyStereo": 0,
        "id_t10_panCvLevel": 1.0,
        "id_t10_stereoWidth": 1.0,
        "id_t10_invertInput": 0,
        "id_t11_gainAdjust": 1.0,
        "id_t11_fadeRate": 0.0,
        "id_t11_fadeProfile": 0.0,
        "id_t11_directOutsMode": 3,
        "id_t11_auxSendsMode": 3,
        "id_t11_panLawStereo": 1,
        "id_t11_vuColorThemeLocal": 0,
        "id_t11_filterPos": 1,
        "id_t11_dispColorLocal": 0,
        "id_t11_polyStereo": 0,
        "id_t11_panCvLevel": 1.0,
        "id_t11_stereoWidth": 1.0,
        "id_t11_invertInput": 0,
        "id_t12_gainAdjust": 1.0,
        "id_t12_fadeRate": 0.0,
        "id_t12_fadeProfile": 0.0,
        "id_t12_directOutsMode": 3,
        "id_t12_auxSendsMode": 3,
        "id_t12_panLawStereo": 1,
        "id_t12_vuColorThemeLocal": 0,
        "id_t12_filterPos": 1,
        "id_t12_dispColorLocal": 0,
        "id_t12_polyStereo": 0,
        "id_t12_panCvLevel": 1.0,
        "id_t12_stereoWidth": 1.0,
        "id_t12_invertInput": 0,
        "id_t13_gainAdjust": 1.0,
        "id_t13_fadeRate": 0.0,
        "id_t13_fadeProfile": 0.0,
        "id_t13_directOutsMode": 3,
        "id_t13_auxSendsMode": 3,
        "id_t13_panLawStereo": 1,
        "id_t13_vuColorThemeLocal": 0,
        "id_t13_filterPos": 1,
        "id_t13_dispColorLocal": 0,
        "id_t13_polyStereo": 0,
        "id_t13_panCvLevel": 1.0,
        "id_t13_stereoWidth": 1.0,
        "id_t13_invertInput": 0,
        "id_t14_gainAdjust": 1.0,
        "id_t14_fadeRate": 0.0,
        "id_t14_fadeProfile": 0.0,
        "id_t14_directOutsMode": 3,
        "id_t14_auxSendsMode": 3,
        "id_t14_panLawStereo": 1,
        "id_t14_vuColorThemeLocal": 0,
        "id_t14_filterPos": 1,
        "id_t14_dispColorLocal": 0,
        "id_t14_polyStereo": 0,
        "id_t14_panCvLevel": 1.0,
        "id_t14_stereoWidth": 1.0,
        "id_t14_invertInput": 0,
        "id_t15_gainAdjust": 1.0,
        "id_t15_fadeRate": 0.0,
        "id_t15_fadeProfile": 0.0,
        "id_t15_directOutsMode": 3,
        "id_t15_auxSendsMode": 3,
        "id_t15_panLawStereo": 1,
        "id_t15_vuColorThemeLocal": 0,
        "id_t15_filterPos": 1,
        "id_t15_dispColorLocal": 0,
        "id_t15_polyStereo": 0,
        "id_t15_panCvLevel": 1.0,
        "id_t15_stereoWidth": 1.0,
        "id_t15_invertInput": 0,
        "id_g0_fadeRate": 0.0,
        "id_g0_fadeProfile": 0.0,
        "id_g0_directOutsMode": 3,
        "id_g0_auxSendsMode": 3,
        "id_g0_panLawStereo": 1,
        "id_g0_vuColorThemeLocal": 0,
        "id_g0_filterPos": 1,
        "id_g0_dispColorLocal": 0,
        "id_g0_panCvLevel": 1.0,
        "id_g0_stereoWidth": 1.0,
        "id_g1_fadeRate": 0.0,
        "id_g1_fadeProfile": 0.0,
        "id_g1_directOutsMode": 3,
        "id_g1_auxSendsMode": 3,
        "id_g1_panLawStereo": 1,
        "id_g1_vuColorThemeLocal": 0,
        "id_g1_filterPos": 1,
        "id_g1_dispColorLocal": 0,
        "id_g1_panCvLevel": 1.0,
        "id_g1_stereoWidth": 1.0,
        "id_g2_fadeRate": 0.0,
        "id_g2_fadeProfile": 0.0,
        "id_g2_directOutsMode": 3,
        "id_g2_auxSendsMode": 3,
        "id_g2_panLawStereo": 1,
        "id_g2_vuColorThemeLocal": 0,
        "id_g2_filterPos": 1,
        "id_g2_dispColorLocal": 0,
        "id_g2_panCvLevel": 1.0,
        "id_g2_stereoWidth": 1.0,
        "id_g3_fadeRate": 0.0,
        "id_g3_fadeProfile": 0.0,
        "id_g3_directOutsMode": 3,
        "id_g3_auxSendsMode": 3,
        "id_g3_panLawStereo": 1,
        "id_g3_vuColorThemeLocal": 0,
        "id_g3_filterPos": 1,
        "id_g3_dispColorLocal": 0,
        "id_g3_panCvLevel": 1.0,
        "id_g3_stereoWidth": 1.0,
        "dcBlock": false,
        "clipping": 0,
        "fadeRate": 0.0,
        "fadeProfile": 0.0,
        "vuColorThemeLocal": 0,
        "dispColorLocal": 0,
        "chainOnly": 0,
        "dimGain": 0.251190007,
        "masterLabel": "MASTER"
      },
      "pos": [
        206,
        7
      ]
    },
    {
      "id": 512,
      "plugin": "Stoermelder-P1",
      "version": "1.9.0",
      "model": "AudioInterface64",
      "params": [],
      "leftModuleId": 513,
      "data": {
        "panelTheme": 0,
        "audio": {
          "driver": 4,
          "deviceName": "system",
          "offset": 0,
          "maxChannels": 64,
          "sampleRate": 44100,
          "blockSize": 2048
        }
      },
      "pos": [
        279,
        7
      ]
    },
    {
      "id": 513,
      "plugin": "MindMeldModular",
      "version": "1.1.14",
      "model": "Unmeld",
      "params": [],
      "leftModuleId": 474,
      "rightModuleId": 512,
      "data": {
        "facePlate": 1
      },
      "pos": [
        273,
        7
      ]
    },
    {
      "id": 515,
      "plugin": "Stoermelder-P1",
      "version": "1.9.0",
      "model": "EightFace",
      "params": [
        {
          "id": 0,
          "value": 0.0
        },
        {
          "id": 1,
          "value": 0.0
        },
        {
          "id": 2,
          "value": 0.0
        },
        {
          "id": 3,
          "value": 0.0
        },
        {
          "id": 4,
          "value": 0.0
        },
        {
          "id": 5,
          "value": 0.0
        },
        {
          "id": 6,
          "value": 0.0
        },
        {
          "id": 7,
          "value": 0.0
        },
        {
          "id": 8,
          "value": 0.0
        }
      ],
      "leftModuleId": 320,
      "data": {
        "panelTheme": 0,
        "mode": 1,
        "pluginSlug": "",
        "modelSlug": "",
        "realPluginSlug": "",
        "realModelSlug": "",
        "moduleName": "",
        "slotCvMode": 2,
        "preset": 0,
        "presetCount": 8,
        "presets": [
          {
            "slotUsed": false
          },
          {
            "slotUsed": false
          },
          {
            "slotUsed": false
          },
          {
            "slotUsed": false
          },
          {
            "slotUsed": false
          },
          {
            "slotUsed": false
          },
          {
            "slotUsed": false
          },
          {
            "slotUsed": false
          }
        ]
      },
      "pos": [
        55,
        2
      ]
    },
    {
      "id": 520,
      "plugin": "Fundamental",
      "version": "1.4.0",
      "model": "ADSR",
      "params": [
        {
          "id": 0,
          "value": 0.128999993
        },
        {
          "id": 1,
          "value": 0.7955001
        },
        {
          "id": 2,
          "value": 0.319500118
        },
        {
          "id": 3,
          "value": 0.63349998
        }
      ],
      "leftModuleId": 523,
      "rightModuleId": 548,
      "pos": [
        127,
        2
      ]
    },
    {
      "id": 523,
      "plugin": "AS",
      "version": "1.0.4",
      "model": "Mixer4ch",
      "params": [
        {
          "id": 0,
          "value": 0.800000012
        },
        {
          "id": 1,
          "value": 0.800000012
        },
        {
          "id": 2,
          "value": 0.800000012
        },
        {
          "id": 3,
          "value": 0.800000012
        },
        {
          "id": 4,
          "value": 0.800000012
        },
        {
          "id": 5,
          "value": 0.0
        },
        {
          "id": 6,
          "value": 0.0
        },
        {
          "id": 7,
          "value": 0.0
        },
        {
          "id": 8,
          "value": 0.0
        },
        {
          "id": 9,
          "value": 0.0
        },
        {
          "id": 10,
          "value": 0.0
        },
        {
          "id": 11,
          "value": 0.0
        },
        {
          "id": 12,
          "value": 0.0
        },
        {
          "id": 13,
          "value": 0.0
        }
      ],
      "leftModuleId": 544,
      "rightModuleId": 520,
      "data": {
        "as_Mixer4Mutes": [
          0,
          0,
          0,
          0,
          0
        ]
      },
      "pos": [
        111,
        2
      ]
    },
    {
      "id": 543,
      "plugin": "Bogaudio",
      "version": "1.1.37",
      "model": "Bogaudio-Walk",
      "params": [
        {
          "id": 0,
          "value": 0.388000071
        },
        {
          "id": 1,
          "value": -0.210000008
        },
        {
          "id": 2,
          "value": 0.00300000049
        }
      ],
      "leftModuleId": 14,
      "rightModuleId": 502,
      "data": {
        "poly_input": 0,
        "jump_mode": "jump"
      },
      "pos": [
        72,
        4
      ]
    },
    {
      "id": 493,
      "plugin": "AS",
      "version": "1.0.4",
      "model": "BPMCalc",
      "params": [
        {
          "id": 0,
          "value": 120.0
        }
      ],
      "leftModuleId": 492,
      "rightModuleId": 40,
      "pos": [
        32,
        5
      ]
    },
    {
      "id": 492,
      "plugin": "AS",
      "version": "1.0.4",
      "model": "SignalDelay",
      "params": [
        {
          "id": 0,
          "value": 1.99999845
        },
        {
          "id": 1,
          "value": 0.0
        },
        {
          "id": 2,
          "value": 1.0
        },
        {
          "id": 3,
          "value": 1.0
        }
      ],
      "leftModuleId": 494,
      "rightModuleId": 493,
      "pos": [
        26,
        5
      ]
    },
    {
      "id": 494,
      "plugin": "RJModules",
      "version": "1.7.2",
      "model": "Button",
      "params": [
        {
          "id": 0,
          "value": 0.0
        }
      ],
      "leftModuleId": 489,
      "rightModuleId": 492,
      "pos": [
        16,
        5
      ]
    },
    {
      "id": 489,
      "plugin": "AS",
      "version": "1.0.4",
      "model": "TriggersMKI",
      "params": [
        {
          "id": 0,
          "value": 10.0
        },
        {
          "id": 1,
          "value": 0.0
        },
        {
          "id": 2,
          "value": 0.0
        }
      ],
      "leftModuleId": 480,
      "rightModuleId": 494,
      "data": {
        "run": [
          0
        ]
      },
      "pos": [
        10,
        5
      ]
    },
    {
      "id": 480,
      "plugin": "Core",
      "version": "1.1.6",
      "model": "CV-CC",
      "params": [],
      "rightModuleId": 489,
      "data": {
        "ccs": [
          0,
          1,
          2,
          3,
          4,
          5,
          6,
          7,
          8,
          9,
          10,
          11,
          12,
          13,
          14,
          15
        ],
        "midi": {
          "driver": 3,
          "channel": 0
        }
      },
      "pos": [
        0,
        5
      ]
    },
    {
      "id": 544,
      "plugin": "SurgeRack",
      "version": "1.7.1.2",
      "model": "SurgeWTOSC",
      "params": [
        {
          "id": 0,
          "value": 1.0
        },
        {
          "id": 1,
          "value": 60.0
        },
        {
          "id": 2,
          "value": 0.0
        },
        {
          "id": 3,
          "value": 0.0
        },
        {
          "id": 4,
          "value": 0.5
        },
        {
          "id": 5,
          "value": 0.00499999989
        },
        {
          "id": 6,
          "value": 0.0
        },
        {
          "id": 7,
          "value": 1.0
        },
        {
          "id": 8,
          "value": 0.200000003
        },
        {
          "id": 9,
          "value": 0.00499999989
        },
        {
          "id": 10,
          "value": 0.920499861
        },
        {
          "id": 11,
          "value": 0.355500013
        },
        {
          "id": 12,
          "value": 0.0
        },
        {
          "id": 13,
          "value": 1.0
        },
        {
          "id": 14,
          "value": -1.0
        },
        {
          "id": 15,
          "value": -1.0
        },
        {
          "id": 16,
          "value": -1.0
        },
        {
          "id": 17,
          "value": 0.0
        },
        {
          "id": 18,
          "value": 0.0
        },
        {
          "id": 19,
          "value": -1.0
        },
        {
          "id": 20,
          "value": -1.0
        },
        {
          "id": 21,
          "value": -1.0
        },
        {
          "id": 22,
          "value": -1.0
        },
        {
          "id": 23,
          "value": -1.0
        },
        {
          "id": 24,
          "value": -1.0
        },
        {
          "id": 25,
          "value": -1.0
        },
        {
          "id": 26,
          "value": 0.0
        },
        {
          "id": 27,
          "value": -1.0
        }
      ],
      "leftModuleId": 113,
      "rightModuleId": 523,
      "data": {
        "comment": "No Comment",
        "buildInfo": "os:linux pluggit: surgegit: buildtime=Sep 10 2020 14:28:34",
        "wtCategoryName": "Layzer/PPG",
        "wtItemName": "PPG 12"
      },
      "pos": [
        91,
        2
      ]
    },
    {
      "id": 547,
      "plugin": "Fundamental",
      "version": "1.4.0",
      "model": "LFO",
      "params": [
        {
          "id": 0,
          "value": 1.0
        },
        {
          "id": 1,
          "value": 1.0
        },
        {
          "id": 2,
          "value": -3.97700119
        },
        {
          "id": 3,
          "value": 0.656999826
        },
        {
          "id": 4,
          "value": 0.0
        },
        {
          "id": 5,
          "value": 0.99000001
        },
        {
          "id": 6,
          "value": 0.0
        }
      ],
      "pos": [
        63,
        1
      ]
    },
    {
      "id": 548,
      "plugin": "Grayscale",
      "version": "1.0.2",
      "model": "Supercell",
      "params": [
        {
          "id": 0,
          "value": 0.0
        },
        {
          "id": 1,
          "value": 0.27549994
        },
        {
          "id": 2,
          "value": 0.5
        },
        {
          "id": 3,
          "value": 0.83099997
        },
        {
          "id": 4,
          "value": 0.139500007
        },
        {
          "id": 5,
          "value": 0.0
        },
        {
          "id": 6,
          "value": 0.0
        },
        {
          "id": 7,
          "value": 0.0
        },
        {
          "id": 8,
          "value": 0.0
        },
        {
          "id": 9,
          "value": 0.0
        },
        {
          "id": 10,
          "value": 0.0
        },
        {
          "id": 11,
          "value": 1.0
        },
        {
          "id": 12,
          "value": 0.375
        },
        {
          "id": 13,
          "value": 0.5
        },
        {
          "id": 14,
          "value": 0.5
        },
        {
          "id": 15,
          "value": 0.520500064
        },
        {
          "id": 16,
          "value": 1.0
        },
        {
          "id": 17,
          "value": 0.0
        },
        {
          "id": 18,
          "value": 0.0
        },
        {
          "id": 19,
          "value": 0.0
        },
        {
          "id": 20,
          "value": 0.0
        },
        {
          "id": 21,
          "value": 0.0
        },
        {
          "id": 22,
          "value": 0.903000057
        },
        {
          "id": 23,
          "value": 0.0
        },
        {
          "id": 24,
          "value": 0.0
        },
        {
          "id": 25,
          "value": 0.0
        }
      ],
      "leftModuleId": 520,
      "rightModuleId": 566,
      "data": {
        "playbackMode": 5,
        "quality": 0,
        "inMute": false,
        "outMute": false,
        "randomEnabled": true,
        "randomFreq": 1.0
      },
      "pos": [
        135,
        2
      ]
    },
    {
      "id": 549,
      "plugin": "Befaco",
      "version": "1.0.1",
      "model": "SlewLimiter",
      "params": [
        {
          "id": 0,
          "value": 0.716999948
        },
        {
          "id": 1,
          "value": 0.321000099
        },
        {
          "id": 2,
          "value": 0.518999994
        }
      ],
      "leftModuleId": 565,
      "rightModuleId": 564,
      "pos": [
        101,
        1
      ]
    },
    {
      "id": 562,
      "plugin": "Fundamental",
      "version": "1.4.0",
      "model": "VCMixer",
      "params": [
        {
          "id": 0,
          "value": 0.0
        },
        {
          "id": 1,
          "value": 1.0
        },
        {
          "id": 2,
          "value": 0.77216059
        },
        {
          "id": 3,
          "value": 1.0
        },
        {
          "id": 4,
          "value": 1.0
        }
      ],
      "rightModuleId": 563,
      "pos": [
        116,
        0
      ]
    },
    {
      "id": 561,
      "plugin": "SurgeRack",
      "version": "1.7.1.2",
      "model": "SurgeOSC",
      "params": [
        {
          "id": 0,
          "value": 1.0
        },
        {
          "id": 1,
          "value": 3.0
        },
        {
          "id": 2,
          "value": 60.0
        },
        {
          "id": 3,
          "value": 0.0
        },
        {
          "id": 4,
          "value": 1.0
        },
        {
          "id": 5,
          "value": 0.03125
        },
        {
          "id": 6,
          "value": 0.0
        },
        {
          "id": 7,
          "value": 0.03125
        },
        {
          "id": 8,
          "value": 0.0
        },
        {
          "id": 9,
          "value": 0.461538464
        },
        {
          "id": 10,
          "value": 1.0
        },
        {
          "id": 11,
          "value": -1.0
        },
        {
          "id": 12,
          "value": -1.0
        },
        {
          "id": 13,
          "value": -1.0
        },
        {
          "id": 14,
          "value": -1.0
        },
        {
          "id": 15,
          "value": -1.0
        },
        {
          "id": 16,
          "value": -1.0
        },
        {
          "id": 17,
          "value": -1.0
        },
        {
          "id": 18,
          "value": -1.0
        },
        {
          "id": 19,
          "value": -1.0
        },
        {
          "id": 20,
          "value": -1.0
        },
        {
          "id": 21,
          "value": -1.0
        },
        {
          "id": 22,
          "value": -1.0
        },
        {
          "id": 23,
          "value": -1.0
        },
        {
          "id": 24,
          "value": 0.0
        }
      ],
      "data": {
        "comment": "No Comment",
        "buildInfo": "os:linux pluggit: surgegit: buildtime=Sep 10 2020 14:28:13"
      },
      "pos": [
        111,
        1
      ]
    },
    {
      "id": 563,
      "plugin": "Fundamental",
      "version": "1.4.0",
      "model": "ADSR",
      "params": [
        {
          "id": 0,
          "value": 0.409500033
        },
        {
          "id": 1,
          "value": 0.7955001
        },
        {
          "id": 2,
          "value": 0.319500118
        },
        {
          "id": 3,
          "value": 0.567499995
        }
      ],
      "leftModuleId": 562,
      "pos": [
        126,
        0
      ]
    },
    {
      "id": 564,
      "plugin": "Fundamental",
      "version": "1.4.0",
      "model": "Octave",
      "params": [
        {
          "id": 0,
          "value": 2.0
        }
      ],
      "leftModuleId": 549,
      "pos": [
        107,
        1
      ]
    },
    {
      "id": 565,
      "plugin": "Blamsoft-XFXWave",
      "version": "1.0.1",
      "model": "Blamsoft-XFXWave",
      "params": [
        {
          "id": 0,
          "value": 0.103499979
        },
        {
          "id": 1,
          "value": 0.386999995
        },
        {
          "id": 2,
          "value": 4.0
        },
        {
          "id": 3,
          "value": 0.5
        },
        {
          "id": 4,
          "value": 0.647000015
        },
        {
          "id": 5,
          "value": 1.0
        },
        {
          "id": 6,
          "value": 0.0
        },
        {
          "id": 7,
          "value": 0.5
        },
        {
          "id": 8,
          "value": 0.699999988
        },
        {
          "id": 9,
          "value": 0.0
        },
        {
          "id": 10,
          "value": 0.0
        },
        {
          "id": 11,
          "value": 0.0
        },
        {
          "id": 12,
          "value": 0.224999994
        },
        {
          "id": 13,
          "value": 0.0
        },
        {
          "id": 14,
          "value": 0.0
        },
        {
          "id": 15,
          "value": 0.0
        },
        {
          "id": 16,
          "value": 0.0
        },
        {
          "id": 17,
          "value": 0.0
        },
        {
          "id": 18,
          "value": 0.636000097
        },
        {
          "id": 19,
          "value": 0.5
        },
        {
          "id": 20,
          "value": 0.84799999
        },
        {
          "id": 21,
          "value": 0.5
        },
        {
          "id": 22,
          "value": 0.5
        }
      ],
      "rightModuleId": 549,
      "data": {
        "wavetable": 0,
        "mod1_mode": 14,
        "mod2_mode": 0,
        "mod3_mode": 0,
        "magnitude_0": 1.0,
        "phase_0": 0.0,
        "magnitude_1": 0.0,
        "phase_1": 0.0,
        "magnitude_2": 0.0,
        "phase_2": 0.0,
        "magnitude_3": 0.0,
        "phase_3": 0.0,
        "magnitude_4": 0.0,
        "phase_4": 0.0,
        "magnitude_5": 0.0,
        "phase_5": 0.0,
        "magnitude_6": 0.0,
        "phase_6": 0.0,
        "magnitude_7": 0.0562266633,
        "phase_7": 0.0,
        "magnitude_8": 0.0,
        "phase_8": 0.0,
        "magnitude_9": 0.0,
        "phase_9": 0.0,
        "magnitude_10": 0.0,
        "phase_10": 0.0,
        "magnitude_11": 0.0,
        "phase_11": 0.0,
        "magnitude_12": 0.0,
        "phase_12": 0.0,
        "magnitude_13": 0.0,
        "phase_13": 0.0,
        "magnitude_14": 0.0,
        "phase_14": 0.0,
        "magnitude_15": 0.0,
        "phase_15": 0.0,
        "magnitude_16": 0.0,
        "phase_16": 0.0,
        "magnitude_17": 0.0,
        "phase_17": 0.0,
        "magnitude_18": 0.0,
        "phase_18": 0.0,
        "magnitude_19": 0.0,
        "phase_19": 0.0,
        "magnitude_20": 0.0,
        "phase_20": 0.0,
        "magnitude_21": 0.0,
        "phase_21": 0.0,
        "magnitude_22": 0.0,
        "phase_22": 0.0,
        "magnitude_23": 0.0,
        "phase_23": 0.0,
        "magnitude_24": 0.0,
        "phase_24": 0.0,
        "magnitude_25": 0.0,
        "phase_25": 0.0
      },
      "pos": [
        75,
        1
      ]
    },
    {
      "id": 566,
      "plugin": "AudibleInstruments",
      "version": "1.5.0",
      "model": "Rings",
      "params": [
        {
          "id": 0,
          "value": 0.0
        },
        {
          "id": 1,
          "value": 0.0
        },
        {
          "id": 2,
          "value": 30.0
        },
        {
          "id": 3,
          "value": 0.243499964
        },
        {
          "id": 4,
          "value": 1.0
        },
        {
          "id": 5,
          "value": 0.0
        },
        {
          "id": 6,
          "value": 1.0
        },
        {
          "id": 7,
          "value": -0.912999988
        },
        {
          "id": 8,
          "value": 0.0
        },
        {
          "id": 9,
          "value": 0.422999978
        },
        {
          "id": 10,
          "value": 0.0
        },
        {
          "id": 11,
          "value": 0.921000063
        }
      ],
      "leftModuleId": 548,
      "rightModuleId": 567,
      "data": {
        "polyphony": 0,
        "model": 0,
        "easterEgg": false
      },
      "pos": [
        169,
        2
      ]
    },
    {
      "id": 567,
      "plugin": "AudibleInstruments",
      "version": "1.5.0",
      "model": "Rings",
      "params": [
        {
          "id": 0,
          "value": 0.0
        },
        {
          "id": 1,
          "value": 0.0
        },
        {
          "id": 2,
          "value": 30.0
        },
        {
          "id": 3,
          "value": 0.210500032
        },
        {
          "id": 4,
          "value": 1.0
        },
        {
          "id": 5,
          "value": 0.0
        },
        {
          "id": 6,
          "value": 1.0
        },
        {
          "id": 7,
          "value": 0.129000008
        },
        {
          "id": 8,
          "value": 0.0
        },
        {
          "id": 9,
          "value": 0.257999986
        },
        {
          "id": 10,
          "value": 0.0
        },
        {
          "id": 11,
          "value": 0.842999935
        }
      ],
      "leftModuleId": 566,
      "rightModuleId": 568,
      "data": {
        "polyphony": 0,
        "model": 0,
        "easterEgg": false
      },
      "pos": [
        183,
        2
      ]
    },
    {
      "id": 568,
      "plugin": "EricaCopies",
      "version": "1.0.4",
      "model": "FusionDelay",
      "params": [
        {
          "id": 0,
          "value": 0.0
        },
        {
          "id": 1,
          "value": 0.0
        },
        {
          "id": 2,
          "value": 0.618500054
        },
        {
          "id": 3,
          "value": 0.0
        },
        {
          "id": 4,
          "value": 0.609499991
        },
        {
          "id": 5,
          "value": 0.0
        },
        {
          "id": 6,
          "value": 0.0
        },
        {
          "id": 7,
          "value": 0.5
        },
        {
          "id": 8,
          "value": 0.100000001
        }
      ],
      "leftModuleId": 567,
      "rightModuleId": 569,
      "pos": [
        197,
        2
      ]
    },
    {
      "id": 569,
      "plugin": "EricaCopies",
      "version": "1.0.4",
      "model": "FusionDelay",
      "params": [
        {
          "id": 0,
          "value": 0.0
        },
        {
          "id": 1,
          "value": 0.0
        },
        {
          "id": 2,
          "value": 0.665000021
        },
        {
          "id": 3,
          "value": 0.0
        },
        {
          "id": 4,
          "value": 0.451999962
        },
        {
          "id": 5,
          "value": 0.0
        },
        {
          "id": 6,
          "value": 0.0
        },
        {
          "id": 7,
          "value": 0.5
        },
        {
          "id": 8,
          "value": 0.100000001
        }
      ],
      "leftModuleId": 568,
      "pos": [
        217,
        2
      ]
    }
  ],
  "cables": [
    {
      "id": 0,
      "outputModuleId": 14,
      "outputId": 4,
      "inputModuleId": 15,
      "inputId": 1,
      "color": "#c91847"
    },
    {
      "id": 3,
      "outputModuleId": 14,
      "outputId": 5,
      "inputModuleId": 15,
      "inputId": 2,
      "color": "#0986ad"
    },
    {
      "id": 5,
      "outputModuleId": 14,
      "outputId": 1,
      "inputModuleId": 15,
      "inputId": 0,
      "color": "#c9b70e"
    },
    {
      "id": 42,
      "outputModuleId": 14,
      "outputId": 4,
      "inputModuleId": 40,
      "inputId": 4,
      "color": "#c91847"
    },
    {
      "id": 43,
      "outputModuleId": 14,
      "outputId": 5,
      "inputModuleId": 40,
      "inputId": 5,
      "color": "#0986ad"
    },
    {
      "id": 44,
      "outputModuleId": 14,
      "outputId": 6,
      "inputModuleId": 40,
      "inputId": 6,
      "color": "#c9b70e"
    },
    {
      "id": 1394,
      "outputModuleId": 14,
      "outputId": 2,
      "inputModuleId": 506,
      "inputId": 0,
      "color": "#0c8e15"
    },
    {
      "id": 1304,
      "outputModuleId": 510,
      "outputId": 0,
      "inputModuleId": 474,
      "inputId": 0,
      "color": "#c91847"
    },
    {
      "id": 1419,
      "outputModuleId": 510,
      "outputId": 1,
      "inputModuleId": 513,
      "inputId": 0,
      "color": "#0986ad"
    },
    {
      "id": 1424,
      "outputModuleId": 474,
      "outputId": 3,
      "inputModuleId": 512,
      "inputId": 2,
      "color": "#0986ad"
    },
    {
      "id": 1425,
      "outputModuleId": 474,
      "outputId": 4,
      "inputModuleId": 512,
      "inputId": 3,
      "color": "#c9b70e"
    },
    {
      "id": 1426,
      "outputModuleId": 474,
      "outputId": 5,
      "inputModuleId": 512,
      "inputId": 4,
      "color": "#0c8e15"
    },
    {
      "id": 1427,
      "outputModuleId": 474,
      "outputId": 6,
      "inputModuleId": 512,
      "inputId": 5,
      "color": "#c91847"
    },
    {
      "id": 1428,
      "outputModuleId": 474,
      "outputId": 7,
      "inputModuleId": 512,
      "inputId": 6,
      "color": "#0986ad"
    },
    {
      "id": 1429,
      "outputModuleId": 474,
      "outputId": 8,
      "inputModuleId": 512,
      "inputId": 7,
      "color": "#c9b70e"
    },
    {
      "id": 1430,
      "outputModuleId": 474,
      "outputId": 9,
      "inputModuleId": 512,
      "inputId": 8,
      "color": "#0c8e15"
    },
    {
      "id": 1431,
      "outputModuleId": 474,
      "outputId": 10,
      "inputModuleId": 512,
      "inputId": 9,
      "color": "#c91847"
    },
    {
      "id": 1432,
      "outputModuleId": 474,
      "outputId": 11,
      "inputModuleId": 512,
      "inputId": 10,
      "color": "#0986ad"
    },
    {
      "id": 1433,
      "outputModuleId": 474,
      "outputId": 12,
      "inputModuleId": 512,
      "inputId": 11,
      "color": "#c9b70e"
    },
    {
      "id": 1434,
      "outputModuleId": 474,
      "outputId": 13,
      "inputModuleId": 512,
      "inputId": 12,
      "color": "#0c8e15"
    },
    {
      "id": 1435,
      "outputModuleId": 474,
      "outputId": 14,
      "inputModuleId": 512,
      "inputId": 13,
      "color": "#c91847"
    },
    {
      "id": 1436,
      "outputModuleId": 474,
      "outputId": 15,
      "inputModuleId": 512,
      "inputId": 14,
      "color": "#0986ad"
    },
    {
      "id": 1437,
      "outputModuleId": 474,
      "outputId": 16,
      "inputModuleId": 512,
      "inputId": 15,
      "color": "#c9b70e"
    },
    {
      "id": 1464,
      "outputModuleId": 513,
      "outputId": 1,
      "inputModuleId": 512,
      "inputId": 16,
      "color": "#0986ad"
    },
    {
      "id": 1465,
      "outputModuleId": 513,
      "outputId": 2,
      "inputModuleId": 512,
      "inputId": 17,
      "color": "#c9b70e"
    },
    {
      "id": 1466,
      "outputModuleId": 513,
      "outputId": 3,
      "inputModuleId": 512,
      "inputId": 18,
      "color": "#0c8e15"
    },
    {
      "id": 1467,
      "outputModuleId": 513,
      "outputId": 4,
      "inputModuleId": 512,
      "inputId": 19,
      "color": "#c91847"
    },
    {
      "id": 1468,
      "outputModuleId": 513,
      "outputId": 5,
      "inputModuleId": 512,
      "inputId": 20,
      "color": "#0986ad"
    },
    {
      "id": 1469,
      "outputModuleId": 513,
      "outputId": 6,
      "inputModuleId": 512,
      "inputId": 21,
      "color": "#c9b70e"
    },
    {
      "id": 1470,
      "outputModuleId": 513,
      "outputId": 7,
      "inputModuleId": 512,
      "inputId": 22,
      "color": "#0c8e15"
    },
    {
      "id": 1471,
      "outputModuleId": 513,
      "outputId": 8,
      "inputModuleId": 512,
      "inputId": 23,
      "color": "#c91847"
    },
    {
      "id": 1472,
      "outputModuleId": 513,
      "outputId": 9,
      "inputModuleId": 512,
      "inputId": 24,
      "color": "#0986ad"
    },
    {
      "id": 1473,
      "outputModuleId": 513,
      "outputId": 10,
      "inputModuleId": 512,
      "inputId": 25,
      "color": "#c9b70e"
    },
    {
      "id": 1474,
      "outputModuleId": 513,
      "outputId": 11,
      "inputModuleId": 512,
      "inputId": 26,
      "color": "#0c8e15"
    },
    {
      "id": 1475,
      "outputModuleId": 513,
      "outputId": 12,
      "inputModuleId": 512,
      "inputId": 27,
      "color": "#c91847"
    },
    {
      "id": 1476,
      "outputModuleId": 513,
      "outputId": 13,
      "inputModuleId": 512,
      "inputId": 28,
      "color": "#0986ad"
    },
    {
      "id": 1477,
      "outputModuleId": 513,
      "outputId": 14,
      "inputModuleId": 512,
      "inputId": 29,
      "color": "#c9b70e"
    },
    {
      "id": 1478,
      "outputModuleId": 513,
      "outputId": 15,
      "inputModuleId": 512,
      "inputId": 30,
      "color": "#0c8e15"
    },
    {
      "id": 1479,
      "outputModuleId": 513,
      "outputId": 16,
      "inputModuleId": 512,
      "inputId": 31,
      "color": "#c91847"
    },
    {
      "id": 1481,
      "outputModuleId": 14,
      "outputId": 4,
      "inputModuleId": 506,
      "inputId": 4,
      "color": "#0c8e15"
    },
    {
      "id": 1482,
      "outputModuleId": 147,
      "outputId": 2,
      "inputModuleId": 510,
      "inputId": 0,
      "color": "#c91847"
    },
    {
      "id": 1480,
      "outputModuleId": 147,
      "outputId": 3,
      "inputModuleId": 510,
      "inputId": 1,
      "color": "#c9b70e"
    },
    {
      "id": 1533,
      "outputModuleId": 14,
      "outputId": 4,
      "inputModuleId": 515,
      "inputId": 1,
      "color": "#c91847"
    },
    {
      "id": 1537,
      "outputModuleId": 520,
      "outputId": 0,
      "inputModuleId": 523,
      "inputId": 0,
      "color": "#c91847"
    },
    {
      "id": 1598,
      "outputModuleId": 543,
      "outputId": 0,
      "inputModuleId": 14,
      "inputId": 6,
      "color": "#0c8e15"
    },
    {
      "id": 1324,
      "outputModuleId": 40,
      "outputId": 0,
      "inputModuleId": 493,
      "inputId": 0,
      "color": "#c91847"
    },
    {
      "id": 1331,
      "outputModuleId": 492,
      "outputId": 2,
      "inputModuleId": 14,
      "inputId": 5,
      "color": "#0c8e15"
    },
    {
      "id": 1329,
      "outputModuleId": 494,
      "outputId": 2,
      "inputModuleId": 492,
      "inputId": 2,
      "color": "#0986ad"
    },
    {
      "id": 1328,
      "outputModuleId": 494,
      "outputId": 1,
      "inputModuleId": 489,
      "inputId": 0,
      "color": "#c91847"
    },
    {
      "id": 1382,
      "outputModuleId": 489,
      "outputId": 0,
      "inputModuleId": 14,
      "inputId": 4,
      "color": "#c9b70e"
    },
    {
      "id": 1320,
      "outputModuleId": 489,
      "outputId": 0,
      "inputModuleId": 480,
      "inputId": 1,
      "color": "#c9b70e"
    },
    {
      "id": 1601,
      "outputModuleId": 510,
      "outputId": 3,
      "inputModuleId": 512,
      "inputId": 0,
      "color": "#0986ad"
    },
    {
      "id": 1602,
      "outputModuleId": 510,
      "outputId": 4,
      "inputModuleId": 512,
      "inputId": 1,
      "color": "#c9b70e"
    },
    {
      "id": 1603,
      "outputModuleId": 544,
      "outputId": 0,
      "inputModuleId": 523,
      "inputId": 1,
      "color": "#0c8e15"
    },
    {
      "id": 1604,
      "outputModuleId": 544,
      "outputId": 1,
      "inputModuleId": 523,
      "inputId": 4,
      "color": "#c91847"
    },
    {
      "id": 1609,
      "outputModuleId": 547,
      "outputId": 1,
      "inputModuleId": 544,
      "inputId": 1,
      "color": "#0986ad"
    },
    {
      "id": 1610,
      "outputModuleId": 15,
      "outputId": 1,
      "inputModuleId": 520,
      "inputId": 4,
      "color": "#0c8e15"
    },
    {
      "id": 1572,
      "outputModuleId": 15,
      "outputId": 0,
      "inputModuleId": 495,
      "inputId": 0,
      "color": "#0c8e15"
    },
    {
      "id": 1612,
      "outputModuleId": 523,
      "outputId": 0,
      "inputModuleId": 548,
      "inputId": 6,
      "color": "#0986ad"
    },
    {
      "id": 1613,
      "outputModuleId": 523,
      "outputId": 1,
      "inputModuleId": 548,
      "inputId": 7,
      "color": "#c9b70e"
    },
    {
      "id": 1611,
      "outputModuleId": 495,
      "outputId": 0,
      "inputModuleId": 113,
      "inputId": 0,
      "color": "#c91847"
    },
    {
      "id": 1614,
      "outputModuleId": 113,
      "outputId": 0,
      "inputModuleId": 549,
      "inputId": 2,
      "color": "#0c8e15"
    },
    {
      "id": 1642,
      "outputModuleId": 15,
      "outputId": 1,
      "inputModuleId": 563,
      "inputId": 4,
      "color": "#c9b70e"
    },
    {
      "id": 1643,
      "outputModuleId": 564,
      "outputId": 0,
      "inputModuleId": 561,
      "inputId": 0,
      "color": "#0c8e15"
    },
    {
      "id": 1644,
      "outputModuleId": 113,
      "outputId": 0,
      "inputModuleId": 564,
      "inputId": 0,
      "color": "#c91847"
    },
    {
      "id": 1615,
      "outputModuleId": 549,
      "outputId": 0,
      "inputModuleId": 544,
      "inputId": 0,
      "color": "#c91847"
    },
    {
      "id": 1645,
      "outputModuleId": 565,
      "outputId": 1,
      "inputModuleId": 523,
      "inputId": 7,
      "color": "#0986ad"
    },
    {
      "id": 1646,
      "outputModuleId": 495,
      "outputId": 0,
      "inputModuleId": 565,
      "inputId": 5,
      "color": "#c9b70e"
    },
    {
      "id": 1647,
      "outputModuleId": 15,
      "outputId": 0,
      "inputModuleId": 547,
      "inputId": 0,
      "color": "#0c8e15"
    },
    {
      "id": 1648,
      "outputModuleId": 547,
      "outputId": 0,
      "inputModuleId": 565,
      "inputId": 2,
      "color": "#c91847"
    },
    {
      "id": 1638,
      "outputModuleId": 548,
      "outputId": 0,
      "inputModuleId": 566,
      "inputId": 7,
      "color": "#0986ad"
    },
    {
      "id": 1639,
      "outputModuleId": 548,
      "outputId": 1,
      "inputModuleId": 567,
      "inputId": 7,
      "color": "#c9b70e"
    },
    {
      "id": 1651,
      "outputModuleId": 549,
      "outputId": 0,
      "inputModuleId": 566,
      "inputId": 6,
      "color": "#0c8e15"
    },
    {
      "id": 1652,
      "outputModuleId": 549,
      "outputId": 0,
      "inputModuleId": 567,
      "inputId": 6,
      "color": "#c91847"
    },
    {
      "id": 1649,
      "outputModuleId": 566,
      "outputId": 0,
      "inputModuleId": 568,
      "inputId": 1,
      "color": "#0986ad"
    },
    {
      "id": 1516,
      "outputModuleId": 568,
      "outputId": 1,
      "inputModuleId": 510,
      "inputId": 2,
      "color": "#0986ad"
    },
    {
      "id": 1650,
      "outputModuleId": 567,
      "outputId": 0,
      "inputModuleId": 569,
      "inputId": 1,
      "color": "#c9b70e"
    },
    {
      "id": 1517,
      "outputModuleId": 569,
      "outputId": 0,
      "inputModuleId": 510,
      "inputId": 3,
      "color": "#c9b70e"
    },
    {
      "id": 1658,
      "outputModuleId": 561,
      "outputId": 0,
      "inputModuleId": 562,
      "inputId": 2,
      "color": "#c9b70e"
    },
    {
      "id": 1659,
      "outputModuleId": 562,
      "outputId": 0,
      "inputModuleId": 565,
      "inputId": 6,
      "color": "#0c8e15"
    },
    {
      "id": 1667,
      "outputModuleId": 549,
      "outputId": 0,
      "inputModuleId": 548,
      "inputId": 4,
      "color": "#0c8e15"
    }
  ]
}